<svg xmlns="http://www.w3.org/2000/svg" width="600" height="330" fill="none"><g clip-path="url(#a)"><path fill="#C4DEEC" d="M0 0h600v330H0z"/><path fill="#fff" fill-rule="evenodd" d="M20.0419 409.474c-38.616-49.329-34.228-257.777 12.7776-286.814C65.2245 102.641 201.03 22.865 269.913 22.7443c35.531-.0623 93.956 21.57 147.219 50.0648.381-14.5427 1.696-26.0184 4.442-28.197 6.118-8.9627 45.867-6.9359 48.884 3.559 2.266 7.8815 3.756 35.9263 4.514 59.9079 24.503 17.169 44.275 34.671 54.81 50.124 19.816 29.067 17.489 189.815 14.137 241.866-12.777 30.562-427.336 37.617-523.8771 9.405Z" clip-rule="evenodd" opacity=".3"/><path fill="#87BBD9" fill-rule="evenodd" d="M310.735 286.709c-16.675-21.613-21.943-46.009-26.008-78.141-2.108-16.661 29.651-18.7 32.759 1.831 3.031 20.019-.818 42.639 15.146 60.673 16.99 19.196 36.646 31.958 49.297 35.429 7.917 2.173 19.509.322 20.348 3.427.426 1.569-2.373.432-2.222 1.921.086.856 2.394.759 4.018 1.256 2.257.693 4.999 3.353 5.008 4.418.037 4.348-4.997 9.648-10.886 7.783-2.61-.827-24.097-7.846-27.002-8.891-9.21-3.313-47.166-12.476-60.458-29.706" clip-rule="evenodd"/><path fill="#fff" fill-rule="evenodd" d="M283.146 186.078c14.681-5.139 39.765 12.393 37.13 34.212-.94 7.778-14.659 11.499-25.43 12.466-9.535.856-6.675-1.672-12.471-21.958-2.742-9.601-17.551-18.306.771-24.72" clip-rule="evenodd"/><path fill="#87BBD9" fill-rule="evenodd" d="M294.674 160.55c7.091-2.659 12.82-8.252 16.866-25.133 8.101-33.799 3.094-43.3649-14.953-49.1472-27.072-8.672-38.49 5.5306-44.226 21.8622-5.737 16.331-.087 36.375-3.565 48.76-2.839 10.115-6.833 18.095-20.873 27.496-16.184 10.84 29.402 54.212 56.367 24.826 11.384-12.406 6.288-14.04 2.519-20.809-3.768-6.769-6.182-22.586 7.865-27.855Z" clip-rule="evenodd"/><path fill="#0C5077" fill-rule="evenodd" d="M312.691 106.517c-10.485 2.481-47.641-17.3976-49.674 2.461-2.378 23.221-9.465 6.144-12.063 30.49-1.542 14.446-28.308-53.231 5.984-63.9098 36.088-11.2394 44.732 3.0678 54.663 1.1801 14.012-2.6648 12.326 27.1217 1.09 29.7787Z" clip-rule="evenodd"/><path fill="#083752" fill-rule="evenodd" d="M282.485 125.453c-.06-1.175.465-1.821 1.837-2.314 1.202-.432 2.277.314 2.514.934.539 1.4-.723 3.839-2.557 3.525-1.243-.213-1.745-1.165-1.794-2.145M301.812 127.027c.112-1.127.644-1.658 1.868-1.909 1.074-.221 1.878.66 1.994 1.286.261 1.418-1.14 3.538-2.643 2.948-1.019-.399-1.312-1.385-1.219-2.325" clip-rule="evenodd"/><path fill="#fff" fill-rule="evenodd" d="M290.739 147.473c4.411.823 7.729-3.279 6.597-4.197-3.211-2.609-10.382-1.29-10.437-1.228-.691.793 1.577 5.003 3.84 5.425" clip-rule="evenodd"/><path fill="#0C5077" fill-rule="evenodd" d="M280.334 119.548c4.484-1.52 8.787-.289 11.194 1.659.669.543.915 1.442.491 2.079-.427.64-1.277.282-1.984-.213-1.892-1.329-4.314-2.588-9.693-.768-.744.252-1.827.364-2.109-.433-.25-.703.55-1.798 2.101-2.324M301.668 119.517c2.708-1.169 5.836-.6 8.539.441 1.277.492 1.459 1.592 1.116 2.141-.387.621-1.053.414-1.658.161-2.981-1.243-5.1-1.954-7.127-.972-3.027 1.467-3.955 2.868-3.014 8.203 1.034 5.855-3.49 6.409-4.019 5.806-.692-.789 1.244-1.588 1.831-2.116 1.605-1.447-.753-5.74-.065-8.837.724-3.261 2.215-3.885 4.397-4.827" clip-rule="evenodd"/><path fill="#87BBD9" fill-rule="evenodd" d="M257.808 136.763c-7.526-1.091-7.799-5.684-7.412-8.037.951-5.768 5.681-7.182 11.223-4.188 3.469 1.873-.065 12.768-3.811 12.225" clip-rule="evenodd"/><path fill="#fff" fill-rule="evenodd" d="M199.84 260.224c0 25.446 6.528 62.884 2.272 83.587-3.171 15.416 4.43 14.953 46.142 17.899 41.033 2.898 70.366 6.518 68.479-.778-8.095-31.289-10.372-77.91-7.934-124.98 1.944-37.528-11.127-53.207-21.753-49.978-3.687 1.121 10.706 11.308-13.636 11.805-21.666.441-39.607-17.531-42.438-16.95-35.723 7.334-31.132 52.763-31.132 79.395Z" clip-rule="evenodd"/><path fill="#87BBD9" fill-rule="evenodd" d="M247.041 312.234c-21.19-21.814-31.907-47.805-43.223-82.323-5.869-17.9 24.601-23.317 32.329-1.311 7.535 21.455 8.965 46.432 28.643 64.429 20.945 19.154 43.016 31.047 56.132 33.547 8.21 1.562 19.076-1.616 20.606 1.675.772 1.662-2.214.709-1.725 2.312.28.921 2.506.582 4.201.959 2.357.526 5.637 3.142 5.89 4.298 1.031 4.724-2.66 10.993-8.822 9.558-2.732-.636-24.502-2.708-27.572-3.551-9.73-2.675-49.567-12.203-66.459-29.593Z" clip-rule="evenodd"/><path fill="#fff" fill-rule="evenodd" d="M218.149 186.139c-16.256 9.753-22.691 39.423-12.193 58.999 3.741 6.978 22.115 4.1 32.602 1.212 9.284-2.556 5.664-3.924 3.661-25.033-.948-9.987-12.691-42.006-24.07-35.178Z" clip-rule="evenodd"/><path fill="#fff" fill-opacity=".2" fill-rule="evenodd" d="M231.376 257.323c-11.253-22.414 2.738-78.852 35.843-86.504 8.832-7.379-9.537-14.158-7.255-22.41 1.189-4.323 8.259-25.983 8.105-31.739 12.613-19.3944 38.581-5.738 43.798-4.555 0 0 92.804 97.395 158.856 142.906 12.604 6.609-41.585 62.359-73.419 77.031-37.935 17.485-98.538-6.816-123.101-22.622-26.571-17.099-32.397-31.326-42.827-52.107Z" clip-rule="evenodd"/><path fill="#FD6340" fill-rule="evenodd" d="M476.56 253.566c2.795-.15 7.34 1.352 6.438 10.797 0 0-11.481 54.108-13.884 68.404 0 19.046-80.879 15.258-143.711 12.115 1.32-23.468 13.938-78.741 13.938-78.741.462-2.317 1.635-9.353 10.328-9.53l126.891-3.045Z" clip-rule="evenodd"/><path fill="#FDEDEB" fill-rule="evenodd" d="M396.254 304.177c.443 6.552 5.234 11.59 14.841 10.993 9.604-.596 13.674-6.182 13.231-12.736-.445-6.552-5.791-7.858-14.841-10.992-8.668-3.003-13.676 6.182-13.231 12.735" clip-rule="evenodd"/><path fill="#87BBD9" d="M176.686 285.768c-.304-6.294 4.558-3.792 8.319 1.819 4.673 7.127 5.319 7.582 15.765 6.331 7.142-.758 5.888-9.478 9.003-9.743 3.115-.266 20.59 33.437 5.623 48.866-14.968 15.43-12.537 10.956-12.423 30.859.114 19.902-7.863 27.637 10.941 22.367 17.057-4.777 6.762 26.271-36.468 18.386-19.564-3.526-47.561-23.011-64.77-30.025-20.8931-8.491-41.2167-7.809-47.8266-17.589-12.0422-17.856-4.3307-32.148 13.9415-45.758 18.2722-13.61 72.7471 15.164 85.0551 11.639 12.308-3.526 13.22-29.191 12.84-37.152Z"/><path fill="#87BBD9" d="M82.3621 314.276s-10.3327-24.225-.6838-48.563c10.0668-25.476 4.4825-55.917-3.381-63.196-7.8635-7.279.0001 17.021-.3798 33.74-.3798 16.718-10.7884 37.114-9.8387 53.908.4771 9.971 2.849 19.762 6.9896 28.85l7.2937-4.739Z"/></g><defs><clipPath id="a"><path fill="#fff" d="M0 0h600v330H0z"/></clipPath></defs></svg>